<svg width="78" height="65" viewBox="0 0 78 65" fill="none" xmlns="http://www.w3.org/2000/svg">
<path d="M46.3418 61.4549C44.0027 56.2671 38.667 51.3737 34.2305 47.935C28.6151 43.5826 22.3841 41.5703 16.1744 38.2635C9.08704 34.4894 5.61178 28.2433 2.4412 21.2114C0.424608 16.7389 3.23573 12.1966 5.77483 8.7871C7.25279 6.80249 13.2029 4.26625 15.5656 4.40178C19.9868 4.65538 24.5292 4.02791 28.5268 6.52972C33.2531 9.48767 40.2655 13.0279 38.7977 19.5946C38.4401 21.1946 38.9278 22.9927 37.348 23.9568C34.5417 25.6694 37.5067 16.2902 37.6855 15.8327C38.7349 13.1477 40.878 8.63564 43.221 6.73739C44.4762 5.72045 46.419 5.17866 47.8851 4.51759C53.0321 2.19689 56.5855 0.597268 62.0732 3.0846C67.0138 5.32392 72.9777 9.7829 75.2782 14.885C76.9109 18.5061 72.574 21.8695 70.2357 24.1669C67.7323 26.6265 65.5006 29.552 62.7024 31.6809C61.084 32.9122 59.3461 34.1942 58.1732 35.8839C57.1728 37.3252 55.7076 38.4011 54.6428 39.841C53.1337 41.8819 51.208 44.5414 49.3797 46.3022C48.1588 47.4781 47.9248 48.4905 47.3943 50.0591C46.6918 52.1363 45.1743 55.3307 45.1555 57.4637C45.1466 58.4668 44.0189 63.5535 46.2989 62.5255" stroke="white" stroke-width="3" stroke-linecap="round"/>
</svg>
