<svg width="310" height="97" viewBox="0 0 310 97" fill="none" xmlns="http://www.w3.org/2000/svg">
<path d="M19.317 28.0434C17.9561 21.2108 22.0275 22.0366 28.2765 21.1081C44.5381 18.6919 61.5989 17.0588 78.0491 17.7871C99.3052 18.7281 121.302 21.9193 141.841 27.2215C172.613 35.1653 202.823 45.6124 234.641 48.4874C260.429 50.8175 286.419 51.3015 307.512 34.5108" stroke="white" stroke-width="3" stroke-linecap="round"/>
<path d="M18.9957 30.9419C12.583 30.2136 5.66781 26.9671 5.1636 19.4254C5.03449 17.4942 5.19364 13.0297 6.6097 11.7754C8.49354 10.1068 13.4518 8.95646 15.1403 11.7232C16.6742 14.2366 13.7739 20.4394 15.4034 13.7066C16.2722 10.1167 18.6771 4.07278 23.312 7.01263C30.2611 11.4204 28.0916 20.8982 22.784 25.7335C18.4116 29.7168 18.1647 31.2214 17.4897 37.1644" stroke="white" stroke-width="3" stroke-linecap="round"/>
<path d="M24.0355 49.8957C23.7343 52.5483 26.231 56.6122 27.7127 52.3113C28.9022 48.8584 24.9171 49.194 23.1569 50.5951" stroke="white" stroke-width="3" stroke-linecap="round"/>
<path d="M27.0299 44.6414C25.7026 44.1448 26.052 35.878 29.1046 36.9296C31.9742 37.9182 30.951 45.0064 29.7815 46.9963C29.3611 47.7117 30.3526 45.664 30.7996 45.0696C31.5784 44.0341 33.027 44.393 34.2156 44.7028C38.1537 45.7294 43.5373 50.3803 39.5518 54.0112C37.7772 55.6279 32.4657 57.0058 30.8838 54.4918C30.1783 53.3706 30.4086 47.2597 30.0787 52.9796C29.924 55.6632 30.2519 58.4908 29.9268 61.3538C29.6508 63.7833 24.6721 66.5198 23.2224 63.7002C22.2657 61.8396 22.4974 56.4014 22.2607 58.4851C21.8584 62.0275 21.452 61.8492 18.2133 62.0657C14.2312 62.3319 13.5668 62.182 11.0354 58.8085C9.61039 56.9094 10.3497 50.9154 13.5096 51.0976C14.7413 51.1687 15.8589 51.2535 16.7712 52.0897C18.2556 53.4502 16.9988 53.5537 15.4403 52.4713C13.2265 50.9337 11.7649 45.3499 12.0387 42.9387C12.459 39.239 13.6977 39.1312 17.0455 39.5115C21.4205 40.0084 20.4438 42.6787 22.9056 45.7714" stroke="white" stroke-width="3" stroke-linecap="round"/>
</svg>
