<svg width="307" height="63" viewBox="0 0 307 63" fill="none" xmlns="http://www.w3.org/2000/svg">
<path d="M16.317 24.0434C14.9561 17.2108 19.0275 18.0366 25.2765 17.1081C41.5381 14.6919 58.5989 13.0588 75.0491 13.7871C96.3052 14.7281 118.302 17.9193 138.841 23.2215C169.613 31.1653 199.823 41.6124 231.641 44.4874C257.429 46.8175 283.419 47.3015 304.512 30.5108" stroke="white" stroke-width="3" stroke-linecap="round"/>
<path d="M15.9957 26.9419C9.58301 26.2136 2.66782 22.9671 2.16361 15.4254C2.0345 13.4942 2.19365 9.02971 3.60971 7.77541C5.49355 6.10681 10.4518 4.95647 12.1403 7.72321C13.6742 10.2366 10.7739 16.4394 12.4034 9.70661C13.2722 6.11671 15.6771 0.0727903 20.312 3.01264C27.2611 7.42041 25.0916 16.8982 19.784 21.7335C15.4116 25.7168 15.1647 27.2214 14.4897 33.1644" stroke="white" stroke-width="3" stroke-linecap="round"/>
<path d="M21.0355 45.8957C20.7343 48.5483 23.231 52.6122 24.7127 48.3113C25.9022 44.8584 21.9171 45.194 20.1569 46.5951" stroke="white" stroke-width="3" stroke-linecap="round"/>
<path d="M24.0299 40.6414C22.7026 40.1448 23.052 31.878 26.1046 32.9296C28.9742 33.9182 27.951 41.0064 26.7815 42.9963C26.3611 43.7117 27.3526 41.664 27.7996 41.0696C28.5784 40.0341 30.027 40.393 31.2156 40.7028C35.1537 41.7294 40.5373 46.3803 36.5518 50.0112C34.7772 51.6279 29.4657 53.0058 27.8838 50.4918C27.1783 49.3706 27.4086 43.2597 27.0787 48.9796C26.924 51.6632 27.2519 54.4908 26.9268 57.3538C26.6508 59.7833 21.6721 62.5198 20.2224 59.7002C19.2657 57.8396 19.4974 52.4014 19.2607 54.4851C18.8584 58.0275 18.452 57.8492 15.2133 58.0657C11.2312 58.3319 10.5668 58.182 8.03542 54.8085C6.61041 52.9094 7.34972 46.9154 10.5096 47.0976C11.7413 47.1687 12.8589 47.2535 13.7712 48.0897C15.2556 49.4502 13.9988 49.5537 12.4403 48.4713C10.2265 46.9337 8.76492 41.3499 9.03872 38.9387C9.45902 35.239 10.6977 35.1312 14.0455 35.5115C18.4205 36.0084 17.4438 38.6787 19.9056 41.7714" stroke="white" stroke-width="3" stroke-linecap="round"/>
</svg>
