<svg width="306" height="63" viewBox="0 0 306 63" fill="none" xmlns="http://www.w3.org/2000/svg">
<path d="M290.195 23.8123C291.556 16.9797 287.484 17.8057 281.235 16.8773C264.974 14.4616 247.913 12.829 231.463 13.5577C210.207 14.4993 188.21 17.6912 167.671 22.9939C136.899 30.9386 106.689 41.3865 74.8719 44.2624C49.084 46.5932 23.0941 47.0779 2 30.2879" stroke="white" stroke-width="3" stroke-linecap="round"/>
<path d="M290.516 26.7109C296.929 25.9823 303.844 22.7357 304.348 15.194C304.477 13.2628 304.318 8.79831 302.902 7.54401C301.018 5.87551 296.06 4.72526 294.371 7.49201C292.837 10.0054 295.738 16.2082 294.108 9.47551C293.239 5.88551 290.834 -0.158274 286.199 2.78171C279.25 7.18961 281.42 16.6674 286.728 21.5026C291.1 25.4858 291.347 26.9903 292.023 32.9333" stroke="white" stroke-width="3" stroke-linecap="round"/>
<path d="M285.477 45.6648C285.778 48.3174 283.282 52.3814 281.8 48.0805C280.61 44.6276 284.596 44.9631 286.356 46.3641" stroke="white" stroke-width="3" stroke-linecap="round"/>
<path d="M282.483 40.4106C283.81 39.9139 283.46 31.6472 280.408 32.6989C277.538 33.6875 278.561 40.7757 279.731 42.7656C280.151 43.481 279.16 41.4332 278.713 40.8389C277.934 39.8034 276.485 40.1623 275.297 40.4722C271.359 41.4989 265.975 46.1499 269.961 49.7807C271.736 51.3973 277.047 52.7751 278.629 50.2611C279.334 49.1399 279.104 43.0289 279.434 48.7489C279.589 51.4325 279.261 54.2601 279.586 57.123C279.862 59.5525 284.841 62.2889 286.291 59.4693C287.247 57.6086 287.015 52.1705 287.252 54.2541C287.655 57.7966 288.061 57.6182 291.3 57.8346C295.282 58.1007 295.946 57.9508 298.477 54.5772C299.902 52.6781 299.163 46.6841 296.003 46.8664C294.771 46.9375 293.654 47.0224 292.741 47.8586C291.257 49.2191 292.514 49.3226 294.072 48.2402C296.286 46.7025 297.748 41.1186 297.474 38.7075C297.053 35.0078 295.815 34.9 292.467 35.2804C288.092 35.7774 289.069 38.4477 286.607 41.5404" stroke="white" stroke-width="3" stroke-linecap="round"/>
</svg>
