<svg width="310" height="97" viewBox="0 0 310 97" fill="none" xmlns="http://www.w3.org/2000/svg">
<path d="M290.195 28.0396C291.556 21.207 287.484 22.033 281.235 21.1046C264.974 18.6889 247.913 17.0563 231.463 17.785C210.207 18.7266 188.21 21.9185 167.671 27.2212C136.899 35.1659 106.689 45.6138 74.8716 48.4897C49.0837 50.8205 23.0938 51.3052 1.99971 34.5152" stroke="white" stroke-width="3" stroke-linecap="round"/>
<path d="M290.516 30.9382C296.929 30.2096 303.844 26.963 304.348 19.4213C304.477 17.4901 304.318 13.0256 302.902 11.7713C301.018 10.1028 296.06 8.95255 294.371 11.7193C292.837 14.2327 295.738 20.4355 294.108 13.7028C293.239 10.1128 290.834 4.06902 286.199 7.009C279.25 11.4169 281.42 20.8947 286.728 25.7299C291.1 29.7131 291.347 31.2176 292.023 37.1606" stroke="white" stroke-width="3" stroke-linecap="round"/>
<path d="M285.477 49.8921C285.778 52.5447 283.282 56.6087 281.8 52.3078C280.61 48.8549 284.596 49.1904 286.356 50.5914" stroke="white" stroke-width="3" stroke-linecap="round"/>
<path d="M282.483 44.6379C283.81 44.1412 283.46 35.8745 280.408 36.9262C277.538 37.9148 278.561 45.003 279.731 46.9929C280.151 47.7083 279.16 45.6605 278.713 45.0662C277.934 44.0307 276.485 44.3896 275.297 44.6995C271.359 45.7262 265.975 50.3772 269.961 54.008C271.736 55.6246 277.047 57.0024 278.629 54.4884C279.334 53.3672 279.104 47.2562 279.434 52.9762C279.589 55.6598 279.261 58.4874 279.586 61.3503C279.862 63.7798 284.841 66.5162 286.291 63.6966C287.247 61.8359 287.015 56.3978 287.252 58.4814C287.655 62.0239 288.061 61.8455 291.3 62.0619C295.282 62.328 295.946 62.1781 298.477 58.8045C299.902 56.9054 299.163 50.9114 296.003 51.0937C294.771 51.1648 293.654 51.2497 292.741 52.0859C291.257 53.4464 292.514 53.5499 294.072 52.4675C296.286 50.9298 297.748 45.3459 297.474 42.9348C297.053 39.2351 295.815 39.1273 292.467 39.5077C288.092 40.0047 289.069 42.675 286.607 45.7677" stroke="white" stroke-width="3" stroke-linecap="round"/>
</svg>
